<?xml version="1.0" standalone="no"?>
<!DOCTYPE svg PUBLIC "-//W3C//DTD SVG 20010904//EN"
 "http://www.w3.org/TR/2001/REC-SVG-20010904/DTD/svg10.dtd">
<svg version="1.0" xmlns="http://www.w3.org/2000/svg"
 width="500.000000pt" height="500.000000pt" viewBox="0 0 500.000000 500.000000"
 preserveAspectRatio="xMidYMid meet">
<metadata>
Created by potrace 1.11, written by Peter Selinger 2001-2013
</metadata>
<g transform="translate(0.000000,500.000000) scale(0.100000,-0.100000)"
fill="#000000" stroke="none">
<path d="M2157 4119 c3 -73 2 -131 -2 -127 -4 4 -18 38 -30 75 -35 101 -45
126 -50 121 -3 -3 1 -37 10 -77 17 -83 19 -147 5 -156 -5 -3 -10 3 -10 15 0
20 -73 176 -90 194 -5 5 0 -22 11 -60 12 -38 23 -94 25 -124 l5 -55 -30 70
c-29 64 -61 112 -61 89 0 -5 14 -65 30 -132 41 -167 40 -233 -2 -195 -22 20
-23 11 -3 -71 12 -53 12 -68 -4 -145 -13 -61 -28 -101 -52 -137 -19 -28 -39
-59 -45 -70 -10 -17 -13 -17 -60 -2 -46 15 -51 15 -79 -3 -16 -10 -38 -34 -48
-53 -33 -64 -35 -237 -3 -249 9 -4 12 0 9 13 -3 11 7 30 26 49 46 47 64 37 41
-23 -12 -32 3 -35 27 -6 10 11 25 20 34 20 19 0 99 -85 99 -105 0 -7 9 -24 20
-38 l21 -26 -22 -63 c-11 -34 -36 -84 -55 -109 -29 -40 -40 -47 -80 -53 -26
-3 -64 -6 -85 -6 -29 0 -39 -4 -39 -16 0 -8 4 -12 10 -9 5 3 27 3 47 -1 l38
-7 -27 -9 c-16 -6 -28 -16 -28 -23 0 -10 10 -10 50 2 28 8 58 12 66 9 24 -9
28 -36 8 -51 -18 -14 -18 -14 2 -15 32 0 47 24 40 64 -9 45 13 70 50 56 13 -5
29 -9 34 -7 5 1 15 -6 22 -16 12 -16 17 -17 41 -6 15 7 27 20 27 30 0 10 5 21
10 24 6 3 10 17 10 31 0 33 23 57 39 41 8 -8 11 -6 11 7 0 10 3 16 8 14 4 -2
29 -14 55 -28 39 -20 50 -22 56 -11 5 7 14 10 20 7 6 -4 11 -2 11 3 0 6 9 11
20 11 11 0 20 5 20 11 0 6 7 8 15 5 8 -3 22 -9 32 -13 11 -4 14 -3 9 5 -10 16
5 14 28 -3 28 -21 38 -19 31 7 -6 18 -4 20 11 13 30 -13 94 -18 94 -8 0 6 19
7 48 2 26 -4 58 -8 72 -8 23 -1 22 1 -13 25 -45 30 -44 37 3 24 19 -5 36 -8
38 -5 6 6 -61 32 -172 66 -205 62 -266 91 -266 125 0 18 12 18 57 -1 49 -21
74 -19 80 5 3 11 14 20 24 20 12 0 19 7 19 19 0 17 5 19 37 14 31 -5 35 -4 30
10 -5 14 0 17 23 17 23 0 30 5 30 19 0 11 9 21 21 24 15 4 20 11 15 22 -4 11
2 19 19 25 14 5 25 16 25 24 0 7 9 16 20 19 11 3 20 12 20 20 0 8 10 17 21 20
15 4 20 11 16 21 -5 12 0 16 21 16 36 0 54 13 46 33 -4 13 -1 17 15 17 29 0
58 45 41 65 -11 13 -8 15 17 15 34 0 68 31 60 54 -3 8 1 20 9 27 15 12 44 62
44 74 0 4 -8 5 -17 4 -32 -3 -34 1 -18 31 9 17 11 30 5 30 -21 0 -9 16 25 34
19 10 42 28 52 39 18 19 17 20 -34 15 -29 -3 -53 -2 -53 1 0 3 15 18 33 32 39
31 113 136 103 146 -3 4 -28 -14 -54 -39 -42 -40 -127 -98 -145 -98 -4 0 12
39 37 88 45 90 71 160 63 168 -2 2 -27 -31 -56 -74 -52 -80 -131 -166 -116
-127 27 74 65 191 65 204 0 9 -20 -20 -43 -64 -51 -97 -86 -145 -105 -145 -12
0 -12 3 0 23 8 12 25 66 37 120 24 112 24 107 13 107 -5 0 -26 -43 -46 -95
-36 -91 -75 -156 -76 -127 0 8 7 38 16 68 8 29 14 68 12 86 -4 30 -11 19 -70
-102 -89 -183 -138 -240 -138 -159 0 17 -6 32 -15 35 -9 4 -15 16 -14 28 5 53
0 68 -21 61 -15 -5 -21 0 -26 19 -3 14 -12 26 -20 26 -11 0 -10 6 2 35 7 19
14 44 14 55 0 20 -2 20 -37 -7 l-36 -28 7 30 c10 39 8 167 -3 178 -4 4 -13
-24 -20 -64 -13 -82 -39 -141 -51 -118 -4 8 -15 49 -25 93 -9 43 -23 92 -30
109 -11 27 -12 13 -8 -104z m310 -646 c-3 -10 -5 -4 -5 12 0 17 2 24 5 18 2
-7 2 -21 0 -30z m91 -3 c24 -36 30 -108 10 -128 -7 -7 -26 -11 -42 -11 -22 1
-25 3 -11 6 34 9 45 24 45 63 0 23 -9 51 -25 75 -14 20 -20 35 -13 33 7 -3 23
-19 36 -38z m-335 -61 c14 -10 -1 -29 -18 -22 -9 3 -15 -1 -15 -10 0 -9 -4
-19 -10 -22 -5 -3 -7 0 -4 9 3 8 0 25 -6 38 -10 19 -10 21 1 11 19 -19 29 -16
30 10 0 15 2 17 6 7 3 -8 10 -18 16 -21z m71 -49 c11 0 13 6 6 30 -6 21 -5 30
3 30 7 0 13 -16 14 -34 3 -34 2 -35 -35 -33 -37 1 -37 2 -33 36 l4 34 13 -31
c7 -18 20 -32 28 -32z m70 18 c3 -16 2 -28 -3 -28 -9 0 -21 33 -21 60 0 22 16
-1 24 -32z m92 -14 c-3 -8 -11 -14 -18 -14 -10 0 -10 2 1 9 8 5 11 17 7 32 -6
21 -5 22 4 6 7 -10 9 -25 6 -33z m-299 -9 c-1 -1 -9 -6 -18 -13 -13 -10 -15
-7 -11 19 4 27 6 28 17 12 8 -10 13 -18 12 -18z m257 10 c4 -10 -1 -15 -15
-15 -17 0 -18 2 -7 15 16 18 15 18 22 0z"/>
<path d="M1510 2028 c0 -55 12 -62 25 -15 9 29 14 32 53 35 l42 3 0 -140 c0
-114 -3 -142 -16 -155 -8 -9 -22 -16 -30 -16 -8 0 -14 -4 -14 -10 0 -6 31 -10
74 -10 41 0 78 5 81 10 3 6 -5 10 -19 10 -40 0 -45 24 -39 173 l6 138 36 -3
c29 -2 39 -9 51 -35 21 -46 32 -41 28 13 l-3 46 -138 2 -137 1 0 -47z"/>
<path d="M1873 2073 c-29 -2 -53 -8 -53 -14 0 -5 9 -9 20 -9 19 0 20 -7 20
-121 0 -172 22 -209 125 -209 61 0 92 14 115 52 17 28 20 51 20 149 0 110 1
117 23 132 30 20 22 24 -45 19 -58 -4 -78 -18 -35 -24 21 -3 22 -7 25 -122 2
-95 -1 -123 -13 -143 -23 -35 -62 -47 -108 -33 -52 15 -67 53 -67 167 0 101 7
133 26 133 8 0 14 7 14 15 0 8 -3 14 -7 13 -5 -1 -32 -3 -60 -5z"/>
<path d="M2194 2071 c-8 -8 -4 -91 5 -91 4 0 12 15 17 33 9 29 14 32 52 35
l42 3 0 -143 c0 -149 -5 -168 -42 -168 -10 0 -18 -4 -18 -10 0 -6 33 -10 80
-10 80 0 106 12 50 24 l-31 6 3 147 3 148 31 3 c35 3 64 -18 64 -49 0 -10 5
-19 10 -19 6 0 10 21 10 48 l0 47 -136 0 c-75 0 -138 -2 -140 -4z"/>
<path d="M2620 2065 c-73 -33 -110 -93 -110 -180 0 -64 16 -102 60 -139 26
-21 42 -26 86 -26 61 0 96 15 136 57 35 37 48 73 48 135 0 96 -52 158 -139
165 -28 2 -60 -3 -81 -12z m107 -35 c44 -27 67 -74 67 -140 0 -66 -23 -114
-64 -135 -96 -50 -194 46 -176 173 8 56 21 79 59 102 41 25 74 25 114 0z"/>
<path d="M3314 2066 c-57 -26 -81 -88 -51 -130 7 -10 44 -37 83 -59 59 -36 69
-47 72 -74 4 -39 -26 -63 -80 -63 -41 0 -68 27 -68 67 0 41 -17 24 -24 -24 -8
-57 -1 -63 79 -63 97 0 142 39 133 116 -3 29 -10 34 -133 111 -56 35 -36 103
31 103 49 0 63 -9 70 -46 3 -19 10 -34 14 -34 7 0 21 92 15 98 -11 12 -115 10
-141 -2z"/>
<path d="M2910 2061 c0 -5 9 -11 20 -14 19 -5 20 -14 20 -146 0 -141 0 -141
-25 -153 -41 -18 -29 -28 35 -28 33 0 60 4 60 10 0 6 -4 10 -10 10 -19 0 -32
42 -25 86 5 37 10 44 29 44 18 0 30 -13 54 -58 41 -77 72 -105 106 -96 32 8
33 20 2 28 -32 8 -113 135 -94 147 7 5 16 9 21 9 14 0 47 65 47 93 0 16 -10
38 -25 52 -22 23 -32 25 -120 25 -52 0 -95 -4 -95 -9z m177 -37 c20 -20 24
-31 19 -57 -9 -46 -33 -67 -78 -67 l-38 0 0 75 0 75 35 0 c25 0 44 -8 62 -26z"/>
<path d="M2020 1498 c0 -55 12 -62 25 -15 9 29 14 32 53 35 l42 3 0 -140 c0
-114 -3 -142 -16 -155 -8 -9 -22 -16 -30 -16 -8 0 -14 -4 -14 -10 0 -6 31 -10
74 -10 41 0 78 5 81 10 3 6 -5 10 -19 10 -40 0 -45 24 -39 173 l6 138 36 -3
c29 -2 39 -9 51 -35 21 -46 32 -41 28 13 l-3 46 -138 2 -137 1 0 -47z"/>
<path d="M2383 1543 c-29 -2 -53 -8 -53 -14 0 -5 9 -9 20 -9 19 0 20 -7 20
-121 0 -172 22 -209 125 -209 61 0 92 14 115 52 17 28 20 51 20 149 0 110 1
117 23 132 30 20 22 24 -45 19 -58 -4 -78 -18 -35 -24 21 -3 22 -7 25 -122 2
-95 -1 -123 -13 -143 -23 -35 -62 -47 -108 -33 -52 15 -67 53 -67 167 0 101 7
133 26 133 8 0 14 7 14 15 0 8 -3 14 -7 13 -5 -1 -32 -3 -60 -5z"/>
<path d="M2704 1541 c-8 -8 -4 -91 5 -91 4 0 12 15 17 33 9 29 14 32 52 35
l42 3 0 -143 c0 -149 -5 -168 -42 -168 -10 0 -18 -4 -18 -10 0 -6 33 -10 80
-10 80 0 106 12 50 24 l-31 6 3 147 3 148 31 3 c35 3 64 -18 64 -49 0 -10 5
-19 10 -19 6 0 10 21 10 48 l0 47 -136 0 c-75 0 -138 -2 -140 -4z"/>
<path d="M1235 790 c-34 -38 -16 -100 30 -100 30 0 55 30 55 68 0 49 -51 69
-85 32z m69 -23 c7 -19 7 -34 0 -45 -25 -39 -74 -20 -74 27 0 55 57 69 74 18z"/>
<path d="M1405 750 c0 -34 4 -60 10 -60 6 0 9 20 7 48 -4 51 0 50 41 -12 25
-37 26 -38 31 -15 11 53 12 99 1 99 -7 0 -9 -14 -7 -34 7 -58 -3 -61 -34 -13
-16 26 -33 47 -39 47 -6 0 -10 -27 -10 -60z"/>
<path d="M1588 798 c16 -16 15 -81 0 -97 -11 -10 -5 -12 26 -9 22 2 41 9 42
16 1 7 0 8 -3 2 -2 -5 -14 -10 -25 -10 -18 0 -20 5 -16 55 3 49 1 55 -16 55
-16 0 -17 -3 -8 -12z"/>
<path d="M1735 750 c0 -54 2 -60 20 -59 11 0 14 3 8 6 -8 3 -13 24 -13 53 0
29 5 50 13 53 6 3 3 6 -8 6 -18 1 -20 -5 -20 -59z"/>
<path d="M1869 773 c17 -21 39 -49 50 -63 l19 -25 3 63 c3 37 0 62 -6 62 -6 0
-9 -20 -7 -47 l3 -48 -33 47 c-18 26 -39 48 -46 48 -8 0 0 -16 17 -37z"/>
<path d="M2035 750 l0 -60 38 0 c29 0 37 4 36 18 0 10 -3 12 -6 5 -2 -7 -15
-13 -28 -13 -22 0 -24 4 -23 51 0 51 0 51 29 45 16 -3 29 -1 29 4 0 6 -17 10
-37 10 l-38 0 0 -60z"/>
<path d="M2278 798 c16 -16 15 -81 0 -97 -11 -10 -5 -12 26 -9 22 2 41 9 42
16 1 7 0 8 -3 2 -2 -5 -14 -10 -25 -10 -18 0 -20 5 -16 55 3 49 1 55 -16 55
-16 0 -17 -3 -8 -12z"/>
<path d="M2425 750 l0 -60 38 0 c29 0 37 4 36 18 0 10 -3 12 -6 5 -2 -7 -15
-13 -28 -13 -22 0 -24 4 -23 51 0 51 0 51 29 45 16 -3 29 -1 29 4 0 6 -17 10
-37 10 l-38 0 0 -60z"/>
<path d="M2612 800 c19 -54 19 -60 5 -60 -9 0 -17 4 -19 9 -1 4 -10 -7 -19
-25 -16 -33 -16 -34 5 -33 11 0 16 3 9 5 -20 9 -2 34 24 34 20 0 24 -4 20 -20
-4 -15 0 -20 15 -20 15 0 18 3 11 13 -6 6 -16 30 -23 52 -7 22 -17 45 -23 50
-7 7 -8 5 -5 -5z"/>
<path d="M2749 759 c2 -36 -1 -54 -10 -60 -10 -6 -9 -9 7 -9 17 0 20 5 16 25
-2 15 0 25 7 25 6 0 17 -11 23 -25 6 -14 17 -25 25 -25 9 0 6 7 -7 20 -22 22
-25 36 -10 45 16 10 12 42 -6 49 -41 16 -49 8 -45 -45z m46 16 c0 -11 -8 -21
-17 -23 -14 -3 -18 3 -18 23 0 20 4 26 18 23 9 -2 17 -12 17 -23z"/>
<path d="M2905 750 c0 -34 4 -60 10 -60 6 0 9 20 7 48 -4 51 0 50 41 -12 25
-37 26 -38 31 -15 11 53 12 99 1 99 -7 0 -9 -14 -7 -34 7 -58 -3 -61 -34 -13
-16 26 -33 47 -39 47 -6 0 -10 -27 -10 -60z"/>
<path d="M3088 798 c16 -16 16 -80 0 -96 -9 -9 -8 -12 7 -12 18 0 20 7 20 60
0 53 -2 60 -19 60 -16 0 -17 -3 -8 -12z"/>
<path d="M3205 750 c0 -34 4 -60 10 -60 6 0 9 20 7 48 -4 51 0 50 41 -12 25
-37 26 -38 31 -15 11 53 12 99 1 99 -7 0 -9 -14 -7 -34 7 -58 -3 -61 -34 -13
-16 26 -33 47 -39 47 -6 0 -10 -27 -10 -60z"/>
<path d="M3435 803 c11 -3 23 -10 27 -17 5 -7 8 -5 8 7 0 12 -7 17 -27 16 -22
-1 -23 -2 -8 -6z"/>
<path d="M3392 788 c-17 -17 -15 -73 2 -87 8 -7 27 -11 43 -9 21 2 28 9 29 26
1 18 1 19 -3 2 -3 -13 -12 -20 -27 -20 -29 0 -46 18 -46 50 0 14 5 31 12 38 7
7 10 12 7 12 -3 0 -10 -5 -17 -12z"/>
<path d="M1848 725 c-2 -21 0 -35 7 -35 7 0 9 14 7 35 -2 19 -5 35 -7 35 -2 0
-5 -16 -7 -35z"/>
</g>
</svg>
